<svg width="28" height="29" viewBox="0 0 28 29" fill="none" xmlns="http://www.w3.org/2000/svg">
<path fill-rule="evenodd" clip-rule="evenodd" d="M13.1281 9.69138C13.7844 9.57565 14.2656 9.14278 14.2617 8.69413L13.6322 1.33492C13.506 0.618893 12.5536 0.180679 11.4863 0.368871C10.4203 0.556839 9.67584 1.29425 9.80209 2.01027L11.7273 9.14101C11.8755 9.56421 12.4753 9.80648 13.13 9.69104L13.1281 9.69138ZM9.56506 12.6527C9.79555 12.0335 9.65949 11.4072 9.26276 11.1879L2.50096 8.07315C1.81142 7.82526 0.948272 8.42225 0.576066 9.43005C0.202365 10.4368 0.476709 11.4394 1.16471 11.6879L8.37772 13.5815C8.82174 13.661 9.33858 13.2666 9.56657 12.6482L9.56506 12.6527ZM17.4917 11.2511C17.9193 11.7539 18.537 11.9482 18.9274 11.7219L25.0581 7.47515C25.6235 7.00599 25.5332 5.97064 24.8422 5.15161C24.1457 4.33322 23.1283 4.06685 22.5668 4.53565L17.2777 9.77524C16.9824 10.1159 17.0682 10.7515 17.4947 11.2551L17.4913 11.2512L17.4917 11.2511ZM14.7239 18.7412C15.3802 18.6255 15.9798 18.8648 16.1297 19.2881L18.055 26.4178C18.1817 27.136 17.4364 27.8723 16.3691 28.0605C15.3031 28.2485 14.3515 27.8114 14.2249 27.0932L13.5953 19.735C13.5897 19.2863 14.0711 18.8563 14.7258 18.7408L14.7239 18.7412ZM18.29 15.7787C18.5196 15.158 19.034 14.767 19.4786 14.8477L26.6916 16.7394C27.3835 16.9875 27.6529 17.9919 27.2838 18.9988C26.9087 20.0033 26.044 20.6028 25.3561 20.3549L18.5947 17.2441C18.2002 17.0227 18.0634 16.3956 18.292 15.777L18.2895 15.7775L18.29 15.7787ZM10.3626 17.1755C10.7908 17.6779 10.8773 18.3139 10.5799 18.6576L5.2905 23.8934C4.72727 24.3618 3.7116 24.0939 3.01782 23.2779C2.32221 22.459 2.23694 21.4222 2.79841 20.953L8.9291 16.7085C9.31888 16.4804 9.93898 16.6717 10.365 17.1764L10.3628 17.1768" fill="#FFE600"/>
</svg>
