<svg width="40" height="44" viewBox="0 0 40 44" fill="none" xmlns="http://www.w3.org/2000/svg">
<path d="M2 10H6M6 10H38M6 10V38C6 39.0609 6.42143 40.0783 7.17157 40.8284C7.92172 41.5786 8.93913 42 10 42H30C31.0609 42 32.0783 41.5786 32.8284 40.8284C33.5786 40.0783 34 39.0609 34 38V10M12 10V6C12 4.93913 12.4214 3.92172 13.1716 3.17157C13.9217 2.42143 14.9391 2 16 2H24C25.0609 2 26.0783 2.42143 26.8284 3.17157C27.5786 3.92172 28 4.93913 28 6V10M16 20V32M24 20V32" stroke="white" stroke-width="4" stroke-linecap="round" stroke-linejoin="round"/>
</svg>
