<svg width="43" height="42" viewBox="0 0 43 42" fill="none" xmlns="http://www.w3.org/2000/svg">
<rect x="1.19013" y="6.95163" width="34.5" height="34.5" rx="17.25" transform="rotate(-10 1.19013 6.95163)" stroke="#1859A6" stroke-width="1.5"/>
<path fill-rule="evenodd" clip-rule="evenodd" d="M16.3111 21.4523L21.805 25.0735L22.2376 27.5264L15.2912 22.9468C13.4497 21.6573 13.0019 19.118 14.2914 17.2764C14.9365 16.3551 15.893 15.7831 16.9195 15.6021C17.9459 15.4211 19.0405 15.6315 19.9618 16.2766C20.0512 16.3392 20.1296 16.4116 20.2077 16.4837C20.2404 16.5138 20.2729 16.5439 20.3062 16.5732C20.3275 16.5343 20.3478 16.4949 20.3682 16.4554C20.4169 16.3609 20.4658 16.2661 20.5284 16.1766C21.1736 15.2553 22.1301 14.6834 23.1566 14.5024C24.183 14.3214 25.2776 14.5317 26.1989 15.1768C27.5268 16.1066 28.1165 17.6848 27.8664 19.1842L25.8688 19.5364C26.3734 18.548 26.0952 17.3136 25.1611 16.6588C24.6664 16.3124 24.066 16.1794 23.4708 16.2844C22.7758 16.4069 22.1959 16.8592 21.9769 17.2846C21.9121 17.4077 21.6387 17.8215 21.366 18.2343C21.1001 18.6368 20.8348 19.0383 20.7639 19.1687C20.6527 19.0704 20.266 18.7838 19.8785 18.4966C19.481 18.2019 19.0826 17.9066 18.9796 17.8131C18.6261 17.4859 17.9332 17.2608 17.2337 17.3842C16.6385 17.4891 16.1198 17.8194 15.7734 18.3141C15.0623 19.3298 15.3049 20.7321 16.3111 21.4523ZM26.9549 23.0197L28.737 22.7055L29.0512 24.4875L27.2692 24.8017L27.5834 26.5838L25.8014 26.898L25.4871 25.116L23.7051 25.4302L23.3909 23.6482L25.1729 23.3339L24.8587 21.5519L26.6407 21.2377L26.9549 23.0197Z" fill="#1859A6"/>
</svg>
