<svg width="40" height="40" viewBox="0 0 48 48" fill="none" xmlns="http://www.w3.org/2000/svg">
<g clip-path="url(#clip0_506_599)">
<path d="M32 32L24 24M24 24L16 32M24 24V42M40.78 36.78C42.7307 35.7165 44.2716 34.0337 45.1597 31.9972C46.0478 29.9607 46.2324 27.6864 45.6844 25.5333C45.1364 23.3803 43.887 21.471 42.1333 20.1069C40.3797 18.7427 38.2217 18.0014 36 18H33.48C32.8746 15.6585 31.7463 13.4846 30.1799 11.642C28.6135 9.79927 26.6497 8.33567 24.4362 7.36118C22.2227 6.3867 19.8171 5.92669 17.4002 6.01573C14.9833 6.10478 12.6181 6.74057 10.4823 7.8753C8.34655 9.01003 6.4958 10.6142 5.06923 12.5671C3.64265 14.5201 2.67736 16.771 2.24594 19.1508C1.81452 21.5305 1.92819 23.977 2.57841 26.3065C3.22862 28.6359 4.39847 30.7877 5.99998 32.6" stroke="white" stroke-width="4" stroke-linecap="round" stroke-linejoin="round"/>
</g>
<defs>
<clipPath id="clip0_506_599">
<rect width="48" height="48" fill="white"/>
</clipPath>
</defs>
</svg>
